# xmcd CD database file
#
# Track frame offsets:
#	150
#	13275
#	27438
#	42005
#	55943
#	69102
#	83874
#	97318
#	112447
#	127867
#	142051
#	157057
#	170659
#	183852
#	196813
#	212879
#	225864
#	239310
#
# Disc length: 3394 seconds
#
# Revision: 0
# Processed by: cddbd v1.5.2PL0 Copyright (c) Steve Scherf et al.
# Submitted via: CDex 1.40Release
#
DISCID=fd0d4012
DTITLE=Billie Holiday - Tenderly
DYEAR=1900
DGENRE=Blues
TTITLE0=That ole devil called love
TTITLE1=God bless the child
TTITLE2=Strange fruit
TTITLE3=The man I love
TTITLE4=I love you porgy
TTITLE5=Fine and mellow
TTITLE6=Night and day
TTITLE7=Lover man
TTITLE8=Don't explain
TTITLE9=Solitute
TTITLE10=Ain't Nobody's Business if I do
TTITLE11=All of me
TTITLE12=I cover the waterfront
TTITLE13=You go to my head
TTITLE14=These foolish things
TTITLE15=I only have eyes for you
TTITLE16=Moonglow
TTITLE17=Tenderly
EXTD=ID3G: 0
EXTT0=
EXTT1=
EXTT2=
EXTT3=
EXTT4=
EXTT5=
EXTT6=
EXTT7=
EXTT8=
EXTT9=
EXTT10=
EXTT11=
EXTT12=
EXTT13=
EXTT14=
EXTT15=
EXTT16=
EXTT17=
PLAYORDER=
